<svg width="32" height="32" viewBox="0 0 32 32" fill="none" xmlns="http://www.w3.org/2000/svg">
<path d="M14 14.236C13.5507 14.7447 13.3123 15.4055 13.3334 16.0838C13.3544 16.7622 13.6333 17.407 14.1131 17.8869C14.593 18.3667 15.2378 18.6456 15.9162 18.6666C16.5945 18.6877 17.2553 18.4493 17.764 18M4 4L28 28L4 4Z" stroke="black" stroke-width="1.5" stroke-linecap="round" stroke-linejoin="round"/>
<path d="M16 8C21.344 8 24.9347 12.2107 28 16C27.5607 16.6944 27.0807 17.3622 26.5627 18M9.816 10.0813C7.57333 11.6533 5.70533 13.8933 4 16C6.51867 19.988 11.0427 24 16 24C18.0667 24 20.0573 23.3027 21.86 22.2L9.816 10.0813Z" stroke="black" stroke-width="1.5" stroke-linecap="round" stroke-linejoin="round"/>
</svg>
