<svg width="32" height="32" viewBox="0 0 32 32" fill="none" xmlns="http://www.w3.org/2000/svg">
<path d="M15.9997 18.6667C16.7069 18.6667 17.3852 18.3858 17.8853 17.8857C18.3854 17.3856 18.6663 16.7073 18.6663 16C18.6663 15.2928 18.3854 14.6145 17.8853 14.1144C17.3852 13.6143 16.7069 13.3334 15.9997 13.3334C15.2924 13.3334 14.6142 13.6143 14.1141 14.1144C13.614 14.6145 13.333 15.2928 13.333 16C13.333 16.7073 13.614 17.3856 14.1141 17.8857C14.6142 18.3858 15.2924 18.6667 15.9997 18.6667Z" stroke="black" stroke-width="1.5" stroke-linecap="round" stroke-linejoin="round"/>
<path d="M28 16C25.4813 19.988 20.9573 24 16 24C11.0427 24 6.51867 19.988 4 16C7.06533 12.2107 10.656 8 16 8C21.344 8 24.9347 12.2107 28 16Z" stroke="black" stroke-width="1.5" stroke-linecap="round" stroke-linejoin="round"/>
</svg>
