<svg width="35" height="46" viewBox="0 0 35 46" fill="none" xmlns="http://www.w3.org/2000/svg">
<path fill-rule="evenodd" clip-rule="evenodd" d="M19.1889 44.5998C23.7526 38.864 34.161 24.9623 34.161 17.1538C34.161 7.67988 26.5104 0 17.0805 0C7.64708 0 0 7.67988 0 17.1538C0 24.9623 10.3284 38.864 14.9721 44.5998C16.0663 45.9667 18.0947 45.9667 19.1889 44.5998ZM17.321 28.637C23.4327 28.637 28.3872 23.6389 28.3872 17.4734C28.3872 11.308 23.4327 6.30985 17.321 6.30985C11.2093 6.30985 6.25476 11.308 6.25476 17.4734C6.25476 23.6389 11.2093 28.637 17.321 28.637Z" fill="#0989E6"/>
<path d="M22.0449 12.8764C22.0329 12.8883 22.0217 12.9011 22.0113 12.9145L16.1854 20.5772L12.6744 16.9511C12.4359 16.7216 12.1205 16.5967 11.7945 16.6027C11.4686 16.6086 11.1576 16.7449 10.9271 16.9829C10.6966 17.2208 10.5645 17.5419 10.5588 17.8783C10.553 18.2148 10.674 18.5404 10.8963 18.7866L15.3349 23.3704C15.4545 23.4936 15.5969 23.5907 15.7536 23.6559C15.9103 23.7211 16.0781 23.753 16.247 23.7498C16.416 23.7465 16.5825 23.7082 16.7368 23.6371C16.891 23.566 17.0299 23.4635 17.1449 23.3358L23.8415 14.6947C24.0695 14.4476 24.1942 14.1178 24.1885 13.7766C24.1829 13.4354 24.0474 13.1102 23.8114 12.8714C23.5753 12.6325 23.2577 12.4991 22.9271 12.5C22.5966 12.5009 22.2796 12.6361 22.0449 12.8764Z" fill="#01AA13"/>
</svg>
