<svg width="203" height="50" viewBox="0 0 203 50" fill="none" xmlns="http://www.w3.org/2000/svg">
<path d="M54.0938 45.625H58.6475L50.9031 23.75H46.6902L38.9458 45.625H43.4995L44.6457 42.2188H52.9477L54.0938 45.625ZM46.0397 38.1563L48.7657 30.0938H48.8276L51.5537 38.1563H46.0397Z" fill="black"/>
<path d="M66.2675 41.3438C64.9974 41.3438 64.5947 41.0312 64.5947 40V33H67.9713V29.0625H64.5947V24.9062H60.1649V29.0625H57.346V33H60.1649V40.2812C60.1649 44.125 61.7758 45.625 65.8338 45.625H68.0642V41.3438H66.2675Z" fill="black"/>
<path d="M80.1181 33V29.0625H76.0601V24.9062H71.6303V29.0625H68.8113V33H71.6303V40.2812C71.6303 44.125 73.2411 45.625 77.2992 45.625H79.5296V41.3438H77.7329C76.4628 41.3438 76.0601 41.0312 76.0601 40V33H80.1181Z" fill="black"/>
<path d="M81.0201 37.3438C81.0201 42.5625 84.2418 46.0938 88.8574 46.0938C91.9862 46.0938 94.3714 44.8438 95.9513 42.3438L92.8226 39.875C91.6764 41.5938 90.4683 42.3438 88.8574 42.3438C86.8439 42.3438 85.6048 41 85.4809 38.6562H96.4779V37.3438C96.4779 32.125 93.3182 28.5938 88.7645 28.5938C84.2418 28.5938 81.0201 32.1875 81.0201 37.3438ZM85.4809 35.5C85.6358 33.5938 86.9678 32.3438 88.7955 32.3438C90.809 32.3438 92.0171 33.5 92.172 35.5H85.4809Z" fill="black"/>
<path d="M98.914 45.625H103.344V35.8125C103.344 33.9062 104.459 32.7188 106.318 32.7188C108.207 32.7188 109.291 33.8438 109.291 35.8125V45.625H113.721V35.0312C113.721 33.0625 113.164 31.5 112.048 30.3438C110.964 29.1875 109.508 28.5938 107.712 28.5938C105.884 28.5938 104.149 29.3125 103.189 30.5312H103.127V29.0625H98.914V45.625Z" fill="black"/>
<path d="M116.021 37.3438C116.021 42.375 119.119 46.0938 123.363 46.0938C125.252 46.0938 126.925 45.2813 127.886 44.1562H127.947V45.625H132.037V22.8125H127.607V30.0625H127.545C126.523 29.0937 125.129 28.5938 123.363 28.5938C119.119 28.5938 116.021 32.3125 116.021 37.3438ZM127.607 38.5312C127.607 40.5312 126.182 42 124.199 42C121.814 42 120.451 40.3125 120.451 37.3438C120.451 34.375 121.814 32.6875 124.199 32.6875C126.182 32.6875 127.607 34.125 127.607 36.1562V38.5312Z" fill="black"/>
<path d="M134.66 41.125C134.66 44.125 136.798 46.0938 140.05 46.0938C142.033 46.0938 143.582 45.4688 144.356 44.3125H144.418V45.625H148.383V34.875C148.383 31 145.781 28.5938 141.661 28.5938C139.772 28.5938 138.161 29.0937 136.829 30.0938C135.497 31.0938 134.722 32.4062 134.475 34.0625L138.533 34.9688C138.873 33.25 139.958 32.3125 141.661 32.3125C143.117 32.3125 143.923 32.875 143.923 33.8438C143.923 34.7188 143.117 35.1875 140.515 35.8125C136.302 36.8438 134.66 38.3438 134.66 41.125ZM144.078 40.0312C144.078 41.4062 142.777 42.3438 140.918 42.3438C139.586 42.3438 138.904 41.8438 138.904 40.8438C138.904 39.9688 139.586 39.4688 141.568 38.9375C143.055 38.5312 143.737 38.125 144.016 37.625H144.078V40.0312Z" fill="black"/>
<path d="M151.31 45.625H155.739V35.8125C155.739 33.9062 156.855 32.7188 158.713 32.7188C160.603 32.7188 161.687 33.8438 161.687 35.8125V45.625H166.117V35.0312C166.117 33.0625 165.559 31.5 164.444 30.3438C163.36 29.1875 161.904 28.5938 160.107 28.5938C158.28 28.5938 156.545 29.3125 155.585 30.5312H155.523V29.0625H151.31V45.625Z" fill="black"/>
<path d="M168.417 37.3438C168.417 42.5312 171.762 46.0938 176.378 46.0938C180.343 46.0938 183.193 43.7188 183.782 39.9688L179.6 39.2188C179.259 41.0625 178.206 42.0312 176.378 42.0312C174.179 42.0312 172.847 40.3125 172.847 37.3438C172.847 34.375 174.179 32.6562 176.378 32.6562C178.144 32.6562 179.259 33.625 179.6 35.4688L183.782 34.7188C183.193 30.9688 180.343 28.5938 176.378 28.5938C171.762 28.5938 168.417 32.1562 168.417 37.3438Z" fill="black"/>
<path d="M185.448 37.3438C185.448 42.5625 188.67 46.0938 193.286 46.0938C196.414 46.0938 198.8 44.8438 200.38 42.3438L197.251 39.875C196.105 41.5938 194.897 42.3438 193.286 42.3438C191.272 42.3438 190.033 41 189.909 38.6562H200.906V37.3438C200.906 32.125 197.746 28.5938 193.193 28.5938C188.67 28.5938 185.448 32.1875 185.448 37.3438ZM189.909 35.5C190.064 33.5938 191.396 32.3438 193.224 32.3438C195.237 32.3438 196.445 33.5 196.6 35.5H189.909Z" fill="black"/>
<path d="M39.583 12.8306C40.218 16.9306 42.8598 19.1344 47.1019 19.1344C50.9883 19.1344 53.6555 17.0587 53.6555 13.9581C53.6555 12.4975 53.1729 11.3187 52.233 10.3706C51.2931 9.42248 49.7182 8.57685 47.5083 7.8081C44.8665 6.91123 44.1045 6.39873 44.1045 5.47623C44.1045 4.47685 45.0189 3.83623 46.416 3.83623C48.0417 3.83623 49.0324 4.68185 49.515 6.50123L53.1729 5.70685C52.614 2.55498 49.8961 0.428101 46.416 0.428101C42.8852 0.428101 40.3959 2.50373 40.3959 5.50185C40.3959 6.80873 40.8277 7.9106 41.6913 8.75623C42.555 9.60185 44.0283 10.3706 46.0858 11.0625C49.0578 12.0875 49.8961 12.7025 49.8961 13.9581C49.8961 15.0856 48.9054 15.7262 47.1527 15.7262C44.7903 15.7262 43.7489 14.7012 43.2662 12.0362L39.583 12.8306Z" fill="#01AA13"/>
<path d="M55.403 18.75H58.9085V10.5244C58.9085 9.06373 59.7467 8.1156 61.0676 8.1156C62.3885 8.1156 63.2267 8.98685 63.2267 10.4475V18.75H66.5797V10.5244C66.5797 9.06373 67.4434 8.1156 68.7643 8.1156C70.0852 8.1156 70.9234 8.98685 70.9234 10.4475V18.75H74.4288V9.7556C74.4288 7.01373 72.4221 4.78435 69.4501 4.78435C67.9768 4.78435 66.783 5.3481 65.8431 6.44998H65.7923C65.0811 5.39935 63.684 4.78435 62.3377 4.78435C60.9152 4.78435 59.5435 5.37373 58.8069 6.3731H58.7561V5.16873H55.403V18.75Z" fill="#01AA13"/>
<path d="M76.4298 15.06C76.4298 17.52 78.1825 19.1344 80.8497 19.1344C82.4754 19.1344 83.7455 18.6219 84.3805 17.6737H84.4313V18.75H87.6827V9.93498C87.6827 6.75748 85.549 4.78435 82.1706 4.78435C80.6211 4.78435 79.3002 5.19435 78.2079 6.01435C77.1157 6.83435 76.4806 7.9106 76.2774 9.26873L79.605 10.0119C79.8844 8.60248 80.7735 7.83373 82.1706 7.83373C83.3644 7.83373 84.0249 8.29498 84.0249 9.08935C84.0249 9.80685 83.3644 10.1912 81.2307 10.7037C77.7761 11.5494 76.4298 12.7794 76.4298 15.06ZM84.1519 14.1631C84.1519 15.2906 83.085 16.0594 81.5609 16.0594C80.4687 16.0594 79.9098 15.6494 79.9098 14.8294C79.9098 14.1119 80.4687 13.7019 82.0944 13.2662C83.3136 12.9331 83.8725 12.6 84.1011 12.19H84.1519V14.1631Z" fill="#01AA13"/>
<path d="M90.0822 18.75H93.7146V11.4469C93.7146 9.47373 94.5275 8.4231 96.077 8.4231C96.5596 8.4231 97.0422 8.49998 97.5756 8.6281L98.1853 5.1431C97.6519 4.98935 97.0676 4.91248 96.4326 4.91248C95.1371 4.91248 94.1464 5.4506 93.5368 6.3731H93.486V5.16873H90.0822V18.75Z" fill="#01AA13"/>
<path d="M107.984 8.39748V5.16873H104.657V1.7606H101.024V5.16873H98.7128V8.39748H101.024V14.3681C101.024 17.52 102.345 18.75 105.673 18.75H107.502V15.2394H106.028C104.987 15.2394 104.657 14.9831 104.657 14.1375V8.39748H107.984Z" fill="#01AA13"/>
<path fill-rule="evenodd" clip-rule="evenodd" d="M19.2314 44.5998C23.795 38.864 34.2035 24.9623 34.2035 17.1538C34.2035 7.67988 26.5528 0 17.123 0C7.68956 0 0.0424805 7.67988 0.0424805 17.1538C0.0424805 24.9623 10.3708 38.864 15.0146 44.5998C16.1088 45.9667 18.1371 45.9667 19.2314 44.5998ZM17.3635 28.637C23.4752 28.637 28.4297 23.6389 28.4297 17.4734C28.4297 11.308 23.4752 6.30985 17.3635 6.30985C11.2518 6.30985 6.29724 11.308 6.29724 17.4734C6.29724 23.6389 11.2518 28.637 17.3635 28.637Z" fill="#0989E6"/>
<path d="M22.0874 12.8764C22.0754 12.8883 22.0642 12.9011 22.0538 12.9145L16.2279 20.5772L12.7169 16.9511C12.4784 16.7216 12.1629 16.5967 11.837 16.6027C11.5111 16.6086 11.2001 16.7449 10.9696 16.9829C10.7391 17.2208 10.607 17.5419 10.6013 17.8783C10.5955 18.2148 10.7165 18.5404 10.9387 18.7866L15.3774 23.3704C15.497 23.4936 15.6394 23.5907 15.7961 23.6559C15.9528 23.7211 16.1206 23.753 16.2895 23.7498C16.4584 23.7465 16.625 23.7082 16.7793 23.6371C16.9335 23.566 17.0723 23.4635 17.1874 23.3358L23.884 14.6947C24.112 14.4476 24.2367 14.1178 24.231 13.7766C24.2254 13.4354 24.0899 13.1102 23.8539 12.8714C23.6178 12.6325 23.3002 12.4991 22.9696 12.5C22.639 12.5009 22.3221 12.6361 22.0874 12.8764Z" fill="#01AA13"/>
</svg>
