<svg width="178" height="234" viewBox="0 0 178 234" fill="none" xmlns="http://www.w3.org/2000/svg">
<g filter="url(#filter0_d_114_4154)">
<path d="M122.104 53.3995C120.214 53.3851 118.391 54.1109 117.022 55.4239H117.032C116.963 55.492 116.898 55.564 116.837 55.6392L83.079 98.9594L62.7252 78.4692C62.0576 77.7478 61.2529 77.1692 60.3588 76.7679C59.7496 76.4943 59.1073 76.307 58.4496 76.21C58.1422 76.1645 57.832 76.139 57.5203 76.1335C56.5418 76.1161 55.569 76.2973 54.6615 76.6666C53.754 77.036 52.9289 77.5855 52.2367 78.2828C51.5445 78.9801 50.9986 79.8106 50.6321 80.7248C50.2656 81.6391 50.0855 82.6183 50.1031 83.6042C50.1115 84.0834 50.1664 84.5592 50.2663 85.0254C50.3718 85.5183 50.528 86.0002 50.7327 86.463C50.9072 86.8564 51.1147 87.2327 51.3531 87.5877C51.6606 88.0454 52.0186 88.4679 52.4217 88.8465L78.1415 114.75C78.8344 115.449 79.6602 115.999 80.5691 116.368C81.4779 116.737 82.4515 116.918 83.4314 116.9C84.4121 116.882 85.3779 116.665 86.2727 116.262C87.1675 115.859 87.9723 115.278 88.6391 114.555L127.423 65.7032C128.7 64.2996 129.386 62.451 129.336 60.5476C129.286 58.6442 128.504 56.8348 127.155 55.5011C125.806 54.1675 123.995 53.414 122.104 53.3995Z" fill="#01AA13"/>
<path fill-rule="evenodd" clip-rule="evenodd" d="M174 84.9699C174 123.649 122.203 192.51 99.4921 220.922C94.0466 227.693 83.9534 227.693 78.508 220.922C55.3987 192.51 4 123.649 4 84.9699C4 38.0418 42.0549 0 89 0C135.927 0 174 38.0418 174 84.9699ZM148.068 82.9855C148.068 116.064 121.3 142.879 88.2797 142.879C55.2594 142.879 28.4915 116.064 28.4915 82.9855C28.4915 49.907 55.2594 23.0916 88.2797 23.0916C121.3 23.0916 148.068 49.907 148.068 82.9855Z" fill="#01AA13"/>
</g>
<defs>
<filter id="filter0_d_114_4154" x="0" y="0" width="178" height="234" filterUnits="userSpaceOnUse" color-interpolation-filters="sRGB">
<feFlood flood-opacity="0" result="BackgroundImageFix"/>
<feColorMatrix in="SourceAlpha" type="matrix" values="0 0 0 0 0 0 0 0 0 0 0 0 0 0 0 0 0 0 127 0" result="hardAlpha"/>
<feOffset dy="4"/>
<feGaussianBlur stdDeviation="2"/>
<feComposite in2="hardAlpha" operator="out"/>
<feColorMatrix type="matrix" values="0 0 0 0 0 0 0 0 0 0 0 0 0 0 0 0 0 0 0.25 0"/>
<feBlend mode="normal" in2="BackgroundImageFix" result="effect1_dropShadow_114_4154"/>
<feBlend mode="normal" in="SourceGraphic" in2="effect1_dropShadow_114_4154" result="shape"/>
</filter>
</defs>
</svg>
