<svg width="170" height="226" viewBox="0 0 170 226" fill="none" xmlns="http://www.w3.org/2000/svg">
<path d="M92.583 89.768H78.375V45.8H92.583V89.768Z" fill="#FFB74D"/>
<path d="M93.159 113H77.799V98.12H93.159V113Z" fill="#FFB74D"/>
<path fill-rule="evenodd" clip-rule="evenodd" d="M170 84.9699C170 123.649 118.203 192.51 95.492 220.922C90.0466 227.693 79.9534 227.693 74.508 220.922C51.3987 192.51 0 123.649 0 84.9699C0 38.0418 38.0549 0 85 0C131.927 0 170 38.0418 170 84.9699ZM144.068 82.9855C144.068 116.064 117.3 142.879 84.2797 142.879C51.2594 142.879 24.4915 116.064 24.4915 82.9855C24.4915 49.907 51.2594 23.0916 84.2797 23.0916C117.3 23.0916 144.068 49.907 144.068 82.9855Z" fill="#FFB74D"/>
</svg>
